<svg fill="#FFFFFF" xmlns="http://www.w3.org/2000/svg" viewBox="0 0 512 512" width="64px"
    height="64px">
    <path
        d="M 255 20 C 251.443 20 248.15333 21.888938 246.36133 24.960938 L 214.25586 80 L 87.5 80 C 61.309 80 40 101.309 40 127.5 L 40 422.5 C 40 448.691 61.309 470 87.5 470 L 422.5 470 C 448.691 470 470 448.691 470 422.5 L 470 127.5 C 470 101.309 448.691 80 422.5 80 L 295.74414 80 L 263.63867 24.960938 C 261.84667 21.888938 258.557 20 255 20 z M 255 49.845703 L 281.36133 95.039062 C 283.15333 98.111062 286.443 100 290 100 L 422.5 100 C 437.663 100 450 112.336 450 127.5 L 450 422.5 C 450 437.663 437.663 450 422.5 450 L 390 450 L 390 378.5 C 390 340.729 359.271 310 321.5 310 L 186 310 C 148.229 310 117.5 340.729 117.5 378.5 L 117.5 450 L 87.5 450 C 72.336 450 60 437.663 60 422.5 L 60 127.5 C 60 112.336 72.336 100 87.5 100 L 220 100 C 223.557 100 226.84667 98.110109 228.63867 95.037109 L 255 49.845703 z M 253.75 140 C 209.638 140 173.75 175.888 173.75 220 C 173.75 264.112 209.638 300 253.75 300 C 297.862 300 333.75 264.112 333.75 220 C 333.75 175.888 297.862 140 253.75 140 z M 253.75 160 C 286.834 160 313.75 186.916 313.75 220 C 313.75 253.084 286.834 280 253.75 280 C 220.666 280 193.75 253.084 193.75 220 C 193.75 186.916 220.666 160 253.75 160 z M 186 330 L 321.5 330 C 348.243 330 370 351.757 370 378.5 L 370 450 L 137.5 450 L 137.5 378.5 C 137.5 351.757 159.257 330 186 330 z" />
</svg>